<svg data-v-2cb57da0="" version="1.0" xmlns="http://www.w3.org/2000/svg" xmlns:xlink="http://www.w3.org/1999/xlink" width="100%" height="100%" viewBox="60 80 220 90" preserveAspectRatio="xMidYMid meet" color-interpolation-filters="sRGB" style="margin: auto;"><g data-v-2cb57da0="" fill="#86623c" class="icon-text-wrapper icon-svg-group iconsvg" transform="translate(62.39514923095703,88.05418777473879)"><g class="iconsvg-imagesvg" transform="matrix(1,0,0,1,0,0)" opacity="1"><g><rect fill="#86623c" fill-opacity="0" stroke-width="2" x="0" y="0" width="60" height="73.89162561576354" class="image-rect"></rect> <svg x="0" y="0" width="60" height="73.89162561576354" filtersec="colorsb1260438508" class="image-svg-svg primary" style="overflow: visible;"><svg xmlns="http://www.w3.org/2000/svg" viewBox="-0.00200653076171875 -0.0019328594207763672 86.67200469970703 106.73917388916016"><g><g><path d="M81.8 9.45l-2.15 18.44S40.12 7.3 26 46.53s28.7 46.19 37.25 41a26 26 0 0 0 11-12.65l12.42 6.43s-11.42 39.79-58.53 19.82S1.8 17.26 27.31 4.86 81.8 9.45 81.8 9.45z" fill="#86623c"></path><path d="M70.53 4.46s.81 4.55-4.72 5.2-10.59-.74-15.83 3-13.36-.62-8.41-4.73 1.86-4.36-.71-4.46a2.19 2.19 0 0 1-2.41-2.27S50-3.06 70.53 4.46zM19 33.13c-3.8-5.52-4.48 4.39-7 9.23s-7.6 3.86-6.54 9.38 7.54 7.74 8.37 13.48 8.94 9.86 9.91 7.51l1-2.36s-3.49-11.16.21-20.55l3.7-9.38s3.74-13.81-2.33-11.82-.42 5.89-4.71 7.88-1.16-1.3-2.61-3.37zM17 77.26c-4.57-.28-2.33 7.23 1.22 6.8s3.37-6.51-1.22-6.8zM25.65 80.42c-1.21.6-.66 4 2.26 3.4s.15-4.59-2.26-3.4zM75.6 98.25s1-8.44-4.29-5.52-1.88 6.68-7.24 6.3-10.66-.49-8.6 1.77 2.18 3.5 1.32 4.64l-.85 1.15s13.76-1.66 19.66-8.34z" fill="#fcf6e1"></path></g></g></svg></svg> <!----></g></g> <g transform="translate(67,14.876420974731445)"><g data-gra="path-name" fill-rule="" class="tp-name iconsvg-namesvg" opacity="1" transform="matrix(1,0,0,1,0,0)"><g transform="scale(1)"><g><path d="M8.86-16.45L8.86-16.45Q8.91-15.89 8.66-15.76 8.42-15.62 8.03-15.79L8.03-15.79Q8.03-15.79 8-15.87 7.97-15.95 7.87-16.03 7.75-16.11 7.62-16.2 7.48-16.28 7.23-16.31 6.99-16.34 6.68-16.25 6.38-16.17 5.94-15.95L5.94-15.95Q5.06-15.46 4.32-13.89 3.58-12.32 3.05-10.26 2.53-8.2 2.39-6.19 2.25-4.18 2.69-2.78 3.14-1.38 4.24-1.16L4.24-1.16Q5.33-0.99 6.35-1.81 7.37-2.64 8.28-4.07 9.19-5.5 9.93-7.12 10.67-8.74 11.19-10.2 11.71-11.66 11.94-12.54L11.94-12.54Q11.99-12.65 12.1-12.76 12.21-12.87 12.38-12.87L12.38-12.87Q12.65-12.87 12.76-12.65 12.87-12.43 12.81-12.15L12.81-12.15Q11.44-7.7 9.87-4.92 8.3-2.15 6.6-0.82 4.9 0.49 2.97 0.49L2.97 0.49Q1.04 0.49 0-0.55-1.04-1.59-1.38-3.35-1.71-5.12-1.43-7.32-1.16-9.52-0.39-11.82L-0.39-11.82Q0.28-13.75 1.43-15.21 2.58-16.66 3.96-17.38 5.33-18.09 6.63-17.93 7.92-17.77 8.86-16.45ZM21.39-12.76L21.39-12.76Q21.45-13.53 21.34-14.85 21.23-16.17 20.9-17.24 20.57-18.32 20.02-18.43L20.02-18.43Q19.52-18.48 19.5-17.82 19.47-17.16 19.72-16.2 19.96-15.23 20.43-14.3 20.9-13.37 21.39-12.76ZM22.38-12.1L22.38-12.1Q23.87-11.33 24.94-11.49 26.02-11.66 26.89-12.87L26.89-12.87Q27.01-12.98 27.12-13.06 27.23-13.14 27.36-13.14 27.5-13.14 27.55-13.09L27.55-13.09Q27.66-13.09 27.75-13.01 27.83-12.93 27.86-12.79 27.88-12.65 27.83-12.43L27.83-12.43Q27.17-11.44 26.15-10.95 25.13-10.45 24.09-10.48 23.05-10.51 22.27-11.05L22.27-11.05Q21.84-6.6 20.82-4.1 19.8-1.59 18.26-0.71 16.72 0.17 14.74-0.22L14.74-0.22Q13.86-0.39 13.26-0.8 12.65-1.21 12.1-2.09L12.1-2.09Q11.38-3.35 11.25-5.31 11.11-7.26 11.44-9.46 11.77-11.66 12.38-13.59 12.98-15.51 13.78-16.66 14.57-17.82 15.4-17.77L15.4-17.77Q16.12-17.6 16.86-17.11 17.6-16.61 18.12-16.11 18.64-15.62 18.64-15.51L18.64-15.51Q17.93-14.19 17.21-12.15 16.5-10.12 16-7.95 15.51-5.78 15.4-4.07 15.29-2.37 15.79-1.76L15.79-1.76Q16.06-1.49 16.47-1.38 16.88-1.26 17.41-1.46 17.93-1.65 18.59-2.37L18.59-2.37Q19.14-3.08 19.75-4.4 20.35-5.72 20.79-7.54 21.23-9.35 21.34-11.61L21.34-11.61Q20.24-12.48 19.58-13.8 18.92-15.13 18.73-16.42 18.54-17.71 18.75-18.59 18.98-19.47 19.58-19.47L19.58-19.47Q19.58-19.47 19.8-19.44 20.02-19.41 20.35-19.25 20.68-19.09 21.04-18.7 21.39-18.32 21.73-17.6L21.73-17.6Q22.05-16.94 22.25-15.26 22.44-13.59 22.38-12.1ZM39.77-12.71L39.77-12.71Q39.77-12.76 39.82-12.81L39.82-12.81 39.82-12.87Q40.37-16.23 41.03-19.64L41.03-19.64 42.41-26.89Q42.9-29.75 43.56-31.76 44.22-33.77 44.94-35.04 45.65-36.3 46.31-37.02 46.97-37.73 47.52-38.06L47.52-38.06Q48.67-38.61 49.72-38.42 50.77-38.23 51.42-37.32 52.08-36.41 51.97-34.87L51.97-34.87Q51.86-32.89 50.49-30.72 49.11-28.55 46.31-26.18L46.31-26.18 45.05-19.69Q44.99-19.41 44.94-19.14L44.94-19.14Q44.16-15.07 43.64-11.69 43.12-8.3 43.09-5.97 43.06-3.63 43.83-2.69L43.83-2.69Q44.44-2.09 45.4-2.72 46.36-3.35 47.47-4.87 48.56-6.38 49.61-8.44 50.66-10.51 51.42-12.71L51.42-12.71Q51.64-13.2 52.08-13.14L52.08-13.14Q52.41-13.04 52.47-12.76 52.52-12.48 52.41-12.21L52.41-12.21Q51.26-9.07 50.16-7.04 49.06-5 48.04-3.74 47.02-2.48 46.14-1.65L46.14-1.65Q45.54-1.1 44.77-0.63 44-0.17 43.06-0.03 42.13 0.11 41.14-0.22L41.14-0.22Q40.2-0.66 39.74-1.84 39.27-3.02 39.19-4.79 39.1-6.54 39.33-8.69L39.33-8.69Q37.67-5.17 36-2.61 34.32-0.06 33.22 0.99L33.22 0.99Q32.34 1.81 30.88 2.09 29.42 2.37 27.88 1.87L27.88 1.87Q26.73 1.49 26.34-0.99 25.96-3.46 26.26-7.32 26.56-11.17 27.36-15.65 28.16-20.13 29.29-24.61 30.41-29.09 31.71-32.81 33-36.52 34.32-38.8 35.64-41.09 36.8-41.25L36.8-41.25Q37.95-41.8 38.99-41.61 40.04-41.41 40.7-40.51 41.36-39.6 41.25-38.06L41.25-38.06Q41.14-36.69 40.26-34.46 39.38-32.23 37.89-29.92 36.41-27.61 34.54-25.96L34.54-25.96 33-19.69Q32.67-17.77 32.28-15.84L32.28-15.84Q31.57-12.21 30.99-8.91 30.41-5.61 30.33-3.25 30.25-0.88 30.91-0.06L30.91-0.06Q31.52 0.55 32.67-0.47 33.82-1.49 35.17-3.55 36.52-5.61 37.76-8.06 38.99-10.51 39.77-12.71ZM40.26-38.12L40.26-38.12Q40.31-38.77 40.15-39.41 39.98-40.04 39.66-40.2L39.66-40.2Q39.21-40.37 38.47-39.08 37.73-37.79 36.77-34.92 35.8-32.06 34.76-27.61L34.76-27.61Q36.58-29.37 37.76-31.43 38.94-33.49 39.57-35.31 40.2-37.13 40.26-38.12ZM50.98-34.92L50.98-34.92Q51.04-35.59 50.88-36.22 50.71-36.85 50.38-37.02L50.38-37.02Q49.94-37.18 49.31-36.33 48.67-35.48 47.99-33.33 47.3-31.18 46.58-27.55L46.58-27.55Q48.4-29.26 49.31-30.55 50.22-31.84 50.57-32.92 50.93-33.99 50.98-34.92ZM59.29-13.09L59.29-13.09Q59.34-13.2 59.48-13.72 59.62-14.24 59.59-14.79 59.56-15.35 59.18-15.68L59.18-15.68Q58.85-15.89 58.52-15.84 58.19-15.79 57.94-15.62 57.7-15.46 57.53-15.29L57.53-15.29Q57.15-14.9 56.59-14.03 56.05-13.14 55.58-12.24 55.11-11.33 54.95-10.78L54.95-10.78Q56.21-10.34 57.06-10.64 57.91-10.95 58.44-11.63 58.96-12.32 59.29-13.09ZM65.06-12.48L65.06-12.48Q65.17-12.76 65.34-12.9 65.5-13.04 65.72-12.98L65.72-12.98Q66.17-12.93 66-12.27L66-12.27Q64.95-9.24 63.66-6.76 62.37-4.29 60.8-2.58 59.23-0.88 57.34-0.19 55.44 0.49 53.24 0L53.24 0Q51.48-0.44 50.63-2.06 49.77-3.69 49.83-6.19 49.88-8.69 50.88-11.71L50.88-11.71Q51.54-13.64 52.63-15.07 53.73-16.5 55.08-17.13 56.43-17.77 57.86-17.38L57.86-17.38Q58.85-17.11 59.59-16.5 60.34-15.89 60.53-14.9 60.72-13.92 60.12-12.54L60.12-12.54Q59.73-11.66 59.02-10.86 58.3-10.06 57.17-9.68 56.05-9.29 54.51-9.73L54.51-9.73Q53.9-7.59 53.71-6.16 53.52-4.73 53.57-3.82 53.63-2.92 53.9-2.39 54.18-1.87 54.45-1.59L54.45-1.59Q55.55-0.77 56.84-1.16 58.14-1.54 59.43-2.78 60.72-4.01 61.88-5.72 63.03-7.42 63.88-9.21 64.73-11 65.06-12.48ZM73.1-16.45L73.1-16.45Q73.15-15.89 72.9-15.76 72.66-15.62 72.27-15.79L72.27-15.79Q72.27-15.79 72.24-15.87 72.22-15.95 72.11-16.03 72-16.11 71.86-16.2 71.72-16.28 71.47-16.31 71.23-16.34 70.92-16.25 70.62-16.17 70.18-15.95L70.18-15.95Q69.3-15.46 68.56-13.89 67.82-12.32 67.29-10.26 66.77-8.2 66.63-6.19 66.5-4.18 66.94-2.78 67.38-1.38 68.48-1.16L68.48-1.16Q69.58-0.99 70.59-1.81 71.61-2.64 72.52-4.07 73.43-5.5 74.17-7.12 74.91-8.74 75.43-10.2 75.96-11.66 76.18-12.54L76.18-12.54Q76.23-12.65 76.34-12.76 76.45-12.87 76.62-12.87L76.62-12.87Q76.89-12.87 77-12.65 77.11-12.43 77.06-12.15L77.06-12.15Q75.68-7.7 74.11-4.92 72.55-2.15 70.84-0.82 69.14 0.49 67.21 0.49L67.21 0.49Q65.29 0.49 64.24-0.55 63.2-1.59 62.87-3.35 62.54-5.12 62.81-7.32 63.09-9.52 63.86-11.82L63.86-11.82Q64.52-13.75 65.67-15.21 66.83-16.66 68.2-17.38 69.58-18.09 70.87-17.93 72.16-17.77 73.1-16.45ZM87.12-12.43L87.12-12.43Q85.97-8.53 84.29-5.28 82.61-2.04 80.85-0.08 79.09 1.87 77.77 1.87L77.77 1.87Q77.39 1.87 76.81 1.71 76.23 1.54 75.79 1.32L75.79 1.32Q74.64 0.66 74.33-1.16 74.03-2.97 74.28-5.39 74.53-7.81 75.05-10.31 75.57-12.81 76.07-14.9L76.07-14.9Q76.23-15.56 76.34-16.17L76.34-16.17Q74.86-16.11 73.76-15.98 72.66-15.84 72.27-15.46L72.27-15.46Q72-15.13 71.67-15.1 71.34-15.07 71.2-15.29 71.06-15.51 71.45-16L71.45-16Q71.45-16.06 71.67-16.23 71.89-16.39 72.41-16.58 72.93-16.77 73.92-16.91 74.91-17.05 76.56-17.05L76.56-17.05Q76.62-17.27 76.67-17.6L76.67-17.6Q76.89-18.48 77.17-19.52 77.44-20.57 77.72-20.84L77.72-20.84Q78.1-21.01 78.73-21.07 79.37-21.12 79.94-21.01 80.52-20.9 80.74-20.63L80.74-20.63Q80.85-20.46 80.69-19.66 80.52-18.86 80.3-17.93L80.3-17.93Q80.19-17.38 80.08-16.94L80.08-16.94Q80.41-16.94 80.91-17 81.4-17.05 81.9-17.27L81.9-17.27 81.95-17.27Q82.06-17.38 82.2-17.41 82.34-17.43 82.5-17.27L82.5-17.27Q82.61-17.16 82.64-17 82.67-16.83 82.45-16.66L82.45-16.66Q81.79-16.28 81.24-16.17 80.69-16.06 80.25-16L80.25-16 79.92-16Q79.75-15.13 79.42-13.92L79.42-13.92Q78.98-11.99 78.51-9.68 78.05-7.37 77.72-5.22 77.39-3.08 77.5-1.59 77.61-0.11 78.32 0.11L78.32 0.11Q79.09 0.11 80-0.8 80.91-1.71 82.5-4.24L82.5-4.24Q83.66-6.11 84.45-8.06 85.25-10.01 85.66-11.36 86.08-12.71 86.08-12.71L86.08-12.71Q86.13-12.81 86.19-12.93 86.24-13.04 86.38-13.09 86.52-13.14 86.68-13.09L86.68-13.09Q86.85-13.04 87.01-12.93 87.18-12.81 87.12-12.43ZM111.05-12.32L111.05-12.32Q111.05-12.32 111.02-11.91 110.99-11.49 110.83-10.95 110.66-10.39 110.33-9.96L110.33-9.96Q110.33-9.96 108.24-9.68 106.15-9.4 102.63-9.29 99.11-9.19 94.71-9.57L94.71-9.57 95.15-11.44Q99.99-11.94 103.54-12.13 107.09-12.32 109.07-12.32 111.05-12.32 111.05-12.32ZM128.21-13.09L128.21-13.09Q128.26-13.2 128.4-13.72 128.54-14.24 128.51-14.79 128.48-15.35 128.1-15.68L128.1-15.68Q127.77-15.89 127.44-15.84 127.11-15.79 126.86-15.62 126.61-15.46 126.45-15.29L126.45-15.29Q126.06-14.9 125.51-14.03 124.96-13.14 124.49-12.24 124.03-11.33 123.86-10.78L123.86-10.78Q125.13-10.34 125.98-10.64 126.83-10.95 127.35-11.63 127.88-12.32 128.21-13.09ZM133.98-12.48L133.98-12.48Q134.09-12.76 134.26-12.9 134.42-13.04 134.64-12.98L134.64-12.98Q135.08-12.93 134.92-12.27L134.92-12.27Q133.87-9.24 132.58-6.76 131.29-4.29 129.72-2.58 128.15-0.88 126.25-0.19 124.36 0.49 122.16 0L122.16 0Q120.4-0.44 119.54-2.06 118.69-3.69 118.75-6.19 118.8-8.69 119.79-11.71L119.79-11.71Q120.45-13.64 121.55-15.07 122.65-16.5 124-17.13 125.35-17.77 126.78-17.38L126.78-17.38Q127.77-17.11 128.51-16.5 129.25-15.89 129.44-14.9 129.64-13.92 129.03-12.54L129.03-12.54Q128.65-11.66 127.93-10.86 127.22-10.06 126.09-9.68 124.96-9.29 123.42-9.73L123.42-9.73Q122.82-7.59 122.62-6.16 122.43-4.73 122.49-3.82 122.54-2.92 122.82-2.39 123.09-1.87 123.37-1.59L123.37-1.59Q124.47-0.77 125.76-1.16 127.05-1.54 128.34-2.78 129.64-4.01 130.79-5.72 131.95-7.42 132.8-9.21 133.65-11 133.98-12.48ZM140.86-15.73L140.86-15.73Q140.53-16.39 140.03-16.58 139.54-16.77 139.07-16.55 138.6-16.34 138.33-15.79L138.33-15.79Q137.78-14.63 137.53-13.45 137.28-12.27 137.34-10.78L137.34-10.78Q138.05-10.95 138.96-11.61 139.87-12.27 140.42-13.2L140.42-13.2Q140.42-13.26 140.47-13.31L140.47-13.31Q140.64-13.64 140.77-14.05 140.91-14.46 140.97-14.9 141.02-15.35 140.86-15.73ZM135.52-1.87L135.52-1.87Q135.52-3.02 135.3-4.13 135.08-5.22 134.53-6.43L134.53-6.43Q133.6-8.2 133.6-9.98 133.6-11.77 134.12-13.28 134.64-14.79 135.41-15.68L135.41-15.68Q136.13-16.55 136.95-17.02 137.78-17.49 138.93-17.55L138.93-17.55Q139.65-17.6 140.42-17.32 141.19-17.05 141.57-16.39L141.57-16.39Q141.9-15.79 141.87-15.07 141.85-14.36 141.57-13.64 141.3-12.93 140.91-12.32L140.91-12.32Q139.98-11.22 139.15-10.7 138.33-10.18 137.61-9.9L137.61-9.9Q137.5-9.85 137.39-9.79L137.39-9.79Q137.45-9.24 137.64-8.66 137.83-8.09 138.11-7.48L138.11-7.48Q138.44-6.88 138.71-6.11 138.99-5.33 139.15-4.4L139.15-4.4 139.15-4.29Q139.21-4.01 139.23-3.66 139.26-3.3 139.21-3.08L139.21-3.08Q140.69-3.58 141.98-5.17 143.28-6.76 144.27-8.88 145.26-11 145.7-13.04L145.7-13.04Q145.75-13.2 145.94-13.26 146.14-13.31 146.25-13.31L146.25-13.31Q146.47-13.31 146.58-13.06 146.69-12.81 146.63-12.65L146.63-12.65Q146.08-10.39 145.04-8.17 143.99-5.94 142.51-4.26 141.02-2.58 139.21-1.93L139.21-1.93Q139.1-1.04 138.71-0.08 138.33 0.88 137.67 1.62 137.01 2.37 136.02 2.48L136.02 2.48Q134.81 2.48 134.2 2.25 133.6 2.04 133.16 1.59L133.16 1.59Q132.83 1.21 132.8 0.74 132.77 0.28 132.94-0.06L132.94-0.06Q133.21-0.6 133.87-1.07 134.53-1.54 135.52-1.87ZM135.47-0.82L135.47-0.82Q134.92-0.71 134.53-0.44 134.15-0.17 133.98 0.22L133.98 0.22Q133.82 0.66 133.9 0.99 133.98 1.32 134.53 1.49L134.53 1.49Q134.81 1.54 135 1.1 135.19 0.66 135.3 0.08 135.41-0.49 135.47-0.82Z" transform="translate(1.5585246086120605, 41.658782958984375)"></path></g> <!----> <!----> <!----> <!----> <!----> <!----> <!----></g></g> <!----></g></g><defs v-gra="od"></defs></svg>